<mxfile host="Electron" agent="Mozilla/5.0 (Windows NT 10.0; Win64; x64) AppleWebKit/537.36 (KHTML, like Gecko) draw.io/26.1.1 Chrome/132.0.6834.210 Electron/34.3.3 Safari/537.36" version="26.1.1">
  <diagram name="Страница — 1" id="l7Aniiyhmfa446S-RoM-">
    <mxGraphModel dx="4261" dy="1611" grid="1" gridSize="10" guides="1" tooltips="1" connect="1" arrows="1" fold="1" page="1" pageScale="1" pageWidth="827" pageHeight="1169" math="0" shadow="0">
      <root>
        <mxCell id="0" />
        <mxCell id="1" parent="0" />
        <mxCell id="OVfSbTxyTq0TTDnVCe_T-7" style="edgeStyle=orthogonalEdgeStyle;rounded=0;orthogonalLoop=1;jettySize=auto;html=1;exitX=0.75;exitY=1;exitDx=0;exitDy=0;entryX=0.5;entryY=0;entryDx=0;entryDy=0;" parent="1" source="OVfSbTxyTq0TTDnVCe_T-2" target="OVfSbTxyTq0TTDnVCe_T-3" edge="1">
          <mxGeometry relative="1" as="geometry" />
        </mxCell>
        <mxCell id="4StrlMHA59hDWWZ7YnD1-1" style="edgeStyle=orthogonalEdgeStyle;rounded=0;orthogonalLoop=1;jettySize=auto;html=1;exitX=0.25;exitY=1;exitDx=0;exitDy=0;entryX=0.5;entryY=0;entryDx=0;entryDy=0;" parent="1" source="OVfSbTxyTq0TTDnVCe_T-2" target="OVfSbTxyTq0TTDnVCe_T-4" edge="1">
          <mxGeometry relative="1" as="geometry" />
        </mxCell>
        <mxCell id="OVfSbTxyTq0TTDnVCe_T-2" value="&lt;div style=&quot;line-height: 100%;&quot;&gt;&lt;p data-pm-slice=&quot;1 1 []&quot; dir=&quot;ltr&quot;&gt;q1: Do you want to keep your money safe above all? - Хотите ли вы прежде всего сохранить свои деньги?&lt;/p&gt;&lt;/div&gt;" style="rounded=0;whiteSpace=wrap;html=1;align=center;" parent="1" vertex="1">
          <mxGeometry x="385" y="50" width="265" height="50" as="geometry" />
        </mxCell>
        <mxCell id="OVfSbTxyTq0TTDnVCe_T-82" style="edgeStyle=orthogonalEdgeStyle;rounded=0;orthogonalLoop=1;jettySize=auto;html=1;exitX=0.25;exitY=1;exitDx=0;exitDy=0;entryX=0.5;entryY=0;entryDx=0;entryDy=0;" parent="1" source="OVfSbTxyTq0TTDnVCe_T-3" target="OVfSbTxyTq0TTDnVCe_T-81" edge="1">
          <mxGeometry relative="1" as="geometry" />
        </mxCell>
        <mxCell id="2kH5Foxya9Uprb5NJpMq-50" style="edgeStyle=orthogonalEdgeStyle;rounded=0;orthogonalLoop=1;jettySize=auto;html=1;exitX=0.75;exitY=1;exitDx=0;exitDy=0;entryX=0.5;entryY=0;entryDx=0;entryDy=0;fontSize=12;startSize=8;endSize=8;" parent="1" source="OVfSbTxyTq0TTDnVCe_T-3" target="2kH5Foxya9Uprb5NJpMq-49" edge="1">
          <mxGeometry relative="1" as="geometry" />
        </mxCell>
        <mxCell id="OVfSbTxyTq0TTDnVCe_T-3" value="&lt;div style=&quot;line-height: 100%;&quot;&gt;&lt;p data-pm-slice=&quot;1 1 []&quot; dir=&quot;ltr&quot;&gt;q3: Do you want regular payments from your investments? - Хотите ли вы получать регулярные выплаты от вложений?&lt;/p&gt;&lt;/div&gt;" style="rounded=0;whiteSpace=wrap;html=1;align=center;" parent="1" vertex="1">
          <mxGeometry x="940" y="170" width="290" height="80" as="geometry" />
        </mxCell>
        <mxCell id="OVfSbTxyTq0TTDnVCe_T-11" style="edgeStyle=orthogonalEdgeStyle;rounded=0;orthogonalLoop=1;jettySize=auto;html=1;exitX=0.25;exitY=1;exitDx=0;exitDy=0;entryX=0.5;entryY=0;entryDx=0;entryDy=0;" parent="1" source="OVfSbTxyTq0TTDnVCe_T-4" target="OVfSbTxyTq0TTDnVCe_T-8" edge="1">
          <mxGeometry relative="1" as="geometry" />
        </mxCell>
        <mxCell id="OVfSbTxyTq0TTDnVCe_T-4" value="&lt;div style=&quot;line-height: 100%;&quot;&gt;&lt;p data-pm-slice=&quot;1 1 []&quot; dir=&quot;ltr&quot;&gt;q2: Are you okay with a small chance of losing money? - Готовы ли вы к небольшому риску потерять деньги?&lt;/p&gt;&lt;/div&gt;" style="rounded=0;whiteSpace=wrap;html=1;align=center;" parent="1" vertex="1">
          <mxGeometry x="-300" y="180" width="256" height="50" as="geometry" />
        </mxCell>
        <mxCell id="OVfSbTxyTq0TTDnVCe_T-21" style="edgeStyle=orthogonalEdgeStyle;rounded=0;orthogonalLoop=1;jettySize=auto;html=1;exitX=0.25;exitY=1;exitDx=0;exitDy=0;entryX=0.5;entryY=0;entryDx=0;entryDy=0;" parent="1" source="OVfSbTxyTq0TTDnVCe_T-8" target="OVfSbTxyTq0TTDnVCe_T-19" edge="1">
          <mxGeometry relative="1" as="geometry">
            <mxPoint x="-950" y="430" as="targetPoint" />
          </mxGeometry>
        </mxCell>
        <mxCell id="OVfSbTxyTq0TTDnVCe_T-22" style="edgeStyle=orthogonalEdgeStyle;rounded=0;orthogonalLoop=1;jettySize=auto;html=1;exitX=0.5;exitY=1;exitDx=0;exitDy=0;entryX=0.5;entryY=0;entryDx=0;entryDy=0;" parent="1" source="OVfSbTxyTq0TTDnVCe_T-8" target="OVfSbTxyTq0TTDnVCe_T-17" edge="1">
          <mxGeometry relative="1" as="geometry" />
        </mxCell>
        <mxCell id="OVfSbTxyTq0TTDnVCe_T-8" value="&lt;div style=&quot;line-height: 100%;&quot;&gt;&lt;p data-pm-slice=&quot;1 1 []&quot; dir=&quot;ltr&quot;&gt;q4: Do you want to avoid big price changes? - Хотите ли вы избегать сильных изменений цен?&lt;/p&gt;&lt;/div&gt;" style="rounded=0;whiteSpace=wrap;html=1;align=center;" parent="1" vertex="1">
          <mxGeometry x="-660" y="320" width="260" height="50" as="geometry" />
        </mxCell>
        <mxCell id="OVfSbTxyTq0TTDnVCe_T-35" style="edgeStyle=orthogonalEdgeStyle;rounded=0;orthogonalLoop=1;jettySize=auto;html=1;exitX=0.25;exitY=1;exitDx=0;exitDy=0;entryX=0.5;entryY=0;entryDx=0;entryDy=0;" parent="1" source="OVfSbTxyTq0TTDnVCe_T-17" target="OVfSbTxyTq0TTDnVCe_T-24" edge="1">
          <mxGeometry relative="1" as="geometry">
            <mxPoint x="-207" y="590" as="targetPoint" />
          </mxGeometry>
        </mxCell>
        <mxCell id="OVfSbTxyTq0TTDnVCe_T-46" style="edgeStyle=orthogonalEdgeStyle;rounded=0;orthogonalLoop=1;jettySize=auto;html=1;exitX=0.75;exitY=1;exitDx=0;exitDy=0;entryX=0.5;entryY=0;entryDx=0;entryDy=0;" parent="1" source="OVfSbTxyTq0TTDnVCe_T-17" target="OVfSbTxyTq0TTDnVCe_T-39" edge="1">
          <mxGeometry relative="1" as="geometry" />
        </mxCell>
        <mxCell id="OVfSbTxyTq0TTDnVCe_T-17" value="&lt;div style=&quot;line-height: 100%;&quot;&gt;&lt;p data-pm-slice=&quot;1 1 []&quot; dir=&quot;ltr&quot;&gt;q7: Do you care about companies helping the environment? - Важно ли вам, чтобы компании заботились об экологии?&lt;/p&gt;&lt;/div&gt;" style="rounded=0;whiteSpace=wrap;html=1;align=center;" parent="1" vertex="1">
          <mxGeometry x="-527" y="450" width="255" height="60" as="geometry" />
        </mxCell>
        <mxCell id="OVfSbTxyTq0TTDnVCe_T-19" value="&lt;div&gt;&lt;span style=&quot;background-color: transparent; color: light-dark(rgb(0, 0, 0), rgb(255, 255, 255));&quot;&gt;R2: Put your money in stable funds that don’t change much - Вкладывайте деньги в стабильные фонды, которые мало меняются&lt;/span&gt;&lt;/div&gt;&lt;div&gt;&lt;p dir=&quot;ltr&quot;&gt;&lt;strong style=&quot;background-color: transparent; color: light-dark(rgb(0, 0, 0), rgb(255, 255, 255));&quot;&gt;Примеры&lt;/strong&gt;&lt;span style=&quot;background-color: transparent; color: light-dark(rgb(0, 0, 0), rgb(255, 255, 255));&quot;&gt;: Паевой фонд &quot;Сбербанк – Фонд сбалансированный&quot;, ВТБ &quot;Фонд Казначейский&quot;.&lt;/span&gt;&lt;/p&gt;&lt;/div&gt;" style="rounded=1;whiteSpace=wrap;html=1;" parent="1" vertex="1">
          <mxGeometry x="-1040" y="450" width="270" height="110" as="geometry" />
        </mxCell>
        <mxCell id="OVfSbTxyTq0TTDnVCe_T-24" value="&lt;p dir=&quot;ltr&quot;&gt;R4: Invest in companies that care about the environment - Вкладывайте в компании, которые заботятся об экологии&lt;/p&gt;&lt;p dir=&quot;ltr&quot;&gt;&lt;strong style=&quot;background-color: transparent; color: light-dark(rgb(0, 0, 0), rgb(255, 255, 255));&quot;&gt;Примеры&lt;/strong&gt;&lt;span style=&quot;background-color: transparent; color: light-dark(rgb(0, 0, 0), rgb(255, 255, 255));&quot;&gt;: Акции Норникеля (с экологическими программами), фонд &quot;Райффайзен – Ответственные инвестиции&quot;.&lt;/span&gt;&lt;/p&gt;" style="rounded=1;whiteSpace=wrap;html=1;" parent="1" vertex="1">
          <mxGeometry x="-810" y="595" width="300" height="115" as="geometry" />
        </mxCell>
        <mxCell id="OVfSbTxyTq0TTDnVCe_T-42" style="edgeStyle=orthogonalEdgeStyle;rounded=0;orthogonalLoop=1;jettySize=auto;html=1;exitX=0.75;exitY=1;exitDx=0;exitDy=0;entryX=0.5;entryY=0;entryDx=0;entryDy=0;" parent="1" source="OVfSbTxyTq0TTDnVCe_T-39" target="OVfSbTxyTq0TTDnVCe_T-43" edge="1">
          <mxGeometry relative="1" as="geometry">
            <mxPoint x="-54" y="747.12" as="targetPoint" />
          </mxGeometry>
        </mxCell>
        <mxCell id="OVfSbTxyTq0TTDnVCe_T-39" value="&lt;div style=&quot;line-height: 100%;&quot;&gt;&lt;p data-pm-slice=&quot;1 1 []&quot; dir=&quot;ltr&quot;&gt;q11: Do you need to sell your investments quickly if needed? - Важно ли вам быстро продать вложения, если понадобится?&lt;/p&gt;&lt;/div&gt;" style="rounded=0;whiteSpace=wrap;html=1;align=center;" parent="1" vertex="1">
          <mxGeometry x="-339" y="597.12" width="259" height="60" as="geometry" />
        </mxCell>
        <mxCell id="OVfSbTxyTq0TTDnVCe_T-43" value="&lt;div&gt;&lt;br&gt;&lt;/div&gt;&lt;div&gt;&lt;p dir=&quot;ltr&quot;&gt;R9: Pick funds that cover many types of businesses - Выбирайте фонды, которые включают разные виды бизнеса&lt;/p&gt;&lt;p dir=&quot;ltr&quot;&gt;&lt;strong style=&quot;background-color: transparent; color: light-dark(rgb(0, 0, 0), rgb(255, 255, 255));&quot;&gt;Примеры&lt;/strong&gt;&lt;span style=&quot;background-color: transparent; color: light-dark(rgb(0, 0, 0), rgb(255, 255, 255));&quot;&gt;: Паевой фонд &quot;Сбербанк – Глобальные акции&quot;, Тинькофф &quot;Фонд мировых акций&quot;.&lt;/span&gt;&lt;/p&gt;&lt;/div&gt;" style="rounded=1;whiteSpace=wrap;html=1;" parent="1" vertex="1">
          <mxGeometry x="-180" y="745.72" width="240" height="110" as="geometry" />
        </mxCell>
        <mxCell id="OVfSbTxyTq0TTDnVCe_T-53" value="ДА" style="text;html=1;align=center;verticalAlign=middle;resizable=0;points=[];autosize=1;strokeColor=none;fillColor=none;" parent="1" vertex="1">
          <mxGeometry x="-131" y="90" width="40" height="30" as="geometry" />
        </mxCell>
        <mxCell id="OVfSbTxyTq0TTDnVCe_T-54" value="ДА" style="text;html=1;align=center;verticalAlign=middle;resizable=0;points=[];autosize=1;strokeColor=none;fillColor=none;" parent="1" vertex="1">
          <mxGeometry x="-390" y="230" width="40" height="30" as="geometry" />
        </mxCell>
        <mxCell id="OVfSbTxyTq0TTDnVCe_T-55" value="ДА" style="text;html=1;align=center;verticalAlign=middle;resizable=0;points=[];autosize=1;strokeColor=none;fillColor=none;" parent="1" vertex="1">
          <mxGeometry x="-880" y="370" width="40" height="30" as="geometry" />
        </mxCell>
        <mxCell id="OVfSbTxyTq0TTDnVCe_T-59" value="ДА" style="text;html=1;align=center;verticalAlign=middle;resizable=0;points=[];autosize=1;strokeColor=none;fillColor=none;" parent="1" vertex="1">
          <mxGeometry x="-610" y="525" width="40" height="30" as="geometry" />
        </mxCell>
        <mxCell id="OVfSbTxyTq0TTDnVCe_T-69" value="НЕТ" style="text;html=1;align=center;verticalAlign=middle;resizable=0;points=[];autosize=1;strokeColor=none;fillColor=none;" parent="1" vertex="1">
          <mxGeometry x="-46" y="240" width="50" height="30" as="geometry" />
        </mxCell>
        <mxCell id="OVfSbTxyTq0TTDnVCe_T-70" value="НЕТ" style="text;html=1;align=center;verticalAlign=middle;resizable=0;points=[];autosize=1;strokeColor=none;fillColor=none;" parent="1" vertex="1">
          <mxGeometry x="675" y="90" width="50" height="30" as="geometry" />
        </mxCell>
        <mxCell id="OVfSbTxyTq0TTDnVCe_T-71" value="НЕТ" style="text;html=1;align=center;verticalAlign=middle;resizable=0;points=[];autosize=1;strokeColor=none;fillColor=none;" parent="1" vertex="1">
          <mxGeometry x="-425" y="380" width="50" height="30" as="geometry" />
        </mxCell>
        <mxCell id="OVfSbTxyTq0TTDnVCe_T-74" value="НЕТ" style="text;html=1;align=center;verticalAlign=middle;resizable=0;points=[];autosize=1;strokeColor=none;fillColor=none;" parent="1" vertex="1">
          <mxGeometry x="-272" y="525" width="50" height="30" as="geometry" />
        </mxCell>
        <mxCell id="OVfSbTxyTq0TTDnVCe_T-80" value="&lt;div&gt;&lt;span style=&quot;background-color: transparent; color: light-dark(rgb(0, 0, 0), rgb(255, 255, 255));&quot;&gt;R5: Let experts manage your investments for regular payments - Доверьте вложения экспертам для регулярных выплат&lt;/span&gt;&lt;/div&gt;&lt;div&gt;&lt;p dir=&quot;ltr&quot;&gt;&lt;strong style=&quot;background-color: transparent; color: light-dark(rgb(0, 0, 0), rgb(255, 255, 255));&quot;&gt;Примеры&lt;/strong&gt;&lt;span style=&quot;background-color: transparent; color: light-dark(rgb(0, 0, 0), rgb(255, 255, 255));&quot;&gt;: Доверительное управление в Сбербанке, инвестиционный счет в Тинькофф.&lt;/span&gt;&lt;/p&gt;&lt;/div&gt;" style="rounded=1;whiteSpace=wrap;html=1;" parent="1" vertex="1">
          <mxGeometry x="-20" y="580" width="310" height="100" as="geometry" />
        </mxCell>
        <mxCell id="OVfSbTxyTq0TTDnVCe_T-84" style="edgeStyle=orthogonalEdgeStyle;rounded=0;orthogonalLoop=1;jettySize=auto;html=1;exitX=0.25;exitY=1;exitDx=0;exitDy=0;entryX=0.5;entryY=0;entryDx=0;entryDy=0;" parent="1" source="OVfSbTxyTq0TTDnVCe_T-81" target="OVfSbTxyTq0TTDnVCe_T-83" edge="1">
          <mxGeometry relative="1" as="geometry">
            <mxPoint x="772.5" y="380" as="sourcePoint" />
          </mxGeometry>
        </mxCell>
        <mxCell id="OVfSbTxyTq0TTDnVCe_T-89" style="rounded=0;orthogonalLoop=1;jettySize=auto;html=1;exitX=0.75;exitY=1;exitDx=0;exitDy=0;entryX=0.5;entryY=0;entryDx=0;entryDy=0;edgeStyle=orthogonalEdgeStyle;" parent="1" source="OVfSbTxyTq0TTDnVCe_T-81" target="2kH5Foxya9Uprb5NJpMq-19" edge="1">
          <mxGeometry relative="1" as="geometry">
            <mxPoint x="1065" y="434.6199999999999" as="targetPoint" />
          </mxGeometry>
        </mxCell>
        <mxCell id="OVfSbTxyTq0TTDnVCe_T-81" value="&lt;div style=&quot;line-height: 100%;&quot;&gt;&lt;p data-pm-slice=&quot;1 1 []&quot; dir=&quot;ltr&quot;&gt;q5: Do you have a lot of extra money to invest? - Есть ли у вас много свободных денег для вложений?&lt;/p&gt;&lt;/div&gt;" style="rounded=0;whiteSpace=wrap;html=1;align=center;" parent="1" vertex="1">
          <mxGeometry x="470" y="285" width="290" height="80" as="geometry" />
        </mxCell>
        <mxCell id="OVfSbTxyTq0TTDnVCe_T-85" style="edgeStyle=orthogonalEdgeStyle;rounded=0;orthogonalLoop=1;jettySize=auto;html=1;exitX=0.25;exitY=1;exitDx=0;exitDy=0;entryX=0.5;entryY=0;entryDx=0;entryDy=0;" parent="1" source="OVfSbTxyTq0TTDnVCe_T-83" target="OVfSbTxyTq0TTDnVCe_T-80" edge="1">
          <mxGeometry relative="1" as="geometry" />
        </mxCell>
        <mxCell id="OVfSbTxyTq0TTDnVCe_T-92" style="edgeStyle=orthogonalEdgeStyle;rounded=0;orthogonalLoop=1;jettySize=auto;html=1;exitX=0.75;exitY=1;exitDx=0;exitDy=0;entryX=0.5;entryY=0;entryDx=0;entryDy=0;" parent="1" source="OVfSbTxyTq0TTDnVCe_T-83" target="WttKWr17SdZgSrrhv0VV-2" edge="1">
          <mxGeometry relative="1" as="geometry">
            <mxPoint x="510" y="565" as="targetPoint" />
          </mxGeometry>
        </mxCell>
        <mxCell id="OVfSbTxyTq0TTDnVCe_T-83" value="&lt;div style=&quot;line-height: 100%;&quot;&gt;&lt;p data-pm-slice=&quot;1 1 []&quot; dir=&quot;ltr&quot;&gt;q8: Do you know how taxes work with investments? - Знаете ли вы, как работают налоги при вложениях?&lt;/p&gt;&lt;/div&gt;" style="rounded=0;whiteSpace=wrap;html=1;align=center;" parent="1" vertex="1">
          <mxGeometry x="220" y="434.62" width="290" height="80" as="geometry" />
        </mxCell>
        <mxCell id="OVfSbTxyTq0TTDnVCe_T-87" value="НЕТ" style="text;html=1;align=center;verticalAlign=middle;resizable=0;points=[];autosize=1;strokeColor=none;fillColor=none;" parent="1" vertex="1">
          <mxGeometry x="750" y="365" width="50" height="30" as="geometry" />
        </mxCell>
        <mxCell id="OVfSbTxyTq0TTDnVCe_T-90" value="НЕТ" style="text;html=1;align=center;verticalAlign=middle;resizable=0;points=[];autosize=1;strokeColor=none;fillColor=none;" parent="1" vertex="1">
          <mxGeometry x="470" y="519.62" width="50" height="30" as="geometry" />
        </mxCell>
        <mxCell id="OVfSbTxyTq0TTDnVCe_T-104" value="ДА" style="text;html=1;align=center;verticalAlign=middle;resizable=0;points=[];autosize=1;strokeColor=none;fillColor=none;" parent="1" vertex="1">
          <mxGeometry x="615" y="240" width="40" height="30" as="geometry" />
        </mxCell>
        <mxCell id="OVfSbTxyTq0TTDnVCe_T-105" value="ДА" style="text;html=1;align=center;verticalAlign=middle;resizable=0;points=[];autosize=1;strokeColor=none;fillColor=none;" parent="1" vertex="1">
          <mxGeometry x="374" y="370" width="40" height="30" as="geometry" />
        </mxCell>
        <mxCell id="OVfSbTxyTq0TTDnVCe_T-106" value="ДА" style="text;html=1;align=center;verticalAlign=middle;resizable=0;points=[];autosize=1;strokeColor=none;fillColor=none;" parent="1" vertex="1">
          <mxGeometry x="130" y="509.62" width="40" height="30" as="geometry" />
        </mxCell>
        <mxCell id="Fa5fMqt53PP2lkEZTv6_-2" value="" style="edgeStyle=orthogonalEdgeStyle;rounded=0;orthogonalLoop=1;jettySize=auto;html=1;exitX=0.75;exitY=1;exitDx=0;exitDy=0;entryX=0.5;entryY=0;entryDx=0;entryDy=0;" parent="1" source="OVfSbTxyTq0TTDnVCe_T-4" target="Fa5fMqt53PP2lkEZTv6_-1" edge="1">
          <mxGeometry relative="1" as="geometry">
            <mxPoint x="-98" y="230" as="sourcePoint" />
            <mxPoint x="-41" y="280" as="targetPoint" />
          </mxGeometry>
        </mxCell>
        <mxCell id="Fa5fMqt53PP2lkEZTv6_-1" value="&lt;div&gt;&lt;br&gt;&lt;/div&gt;&lt;div&gt;&lt;p dir=&quot;ltr&quot;&gt;R1: Keep your money in the safest options, like bank savings - Храните деньги в самых надежных вариантах, таких как банковские сбережения&amp;nbsp;&lt;/p&gt;&lt;p dir=&quot;ltr&quot;&gt;&lt;strong style=&quot;background-color: transparent; color: light-dark(rgb(0, 0, 0), rgb(255, 255, 255));&quot;&gt;Примеры&lt;/strong&gt;&lt;span style=&quot;background-color: transparent; color: light-dark(rgb(0, 0, 0), rgb(255, 255, 255));&quot;&gt;: Сберегательный счет в Сбербанке, вклад &quot;Сохраняй&quot; в ВТБ.&lt;/span&gt;&lt;/p&gt;&lt;/div&gt;" style="rounded=1;whiteSpace=wrap;html=1;" parent="1" vertex="1">
          <mxGeometry x="-120" y="295" width="290" height="105" as="geometry" />
        </mxCell>
        <mxCell id="Fa5fMqt53PP2lkEZTv6_-11" style="edgeStyle=orthogonalEdgeStyle;rounded=0;orthogonalLoop=1;jettySize=auto;html=1;fontSize=12;startSize=8;endSize=8;exitX=0.25;exitY=1;exitDx=0;exitDy=0;entryX=0.5;entryY=0;entryDx=0;entryDy=0;" parent="1" source="OVfSbTxyTq0TTDnVCe_T-39" target="Fa5fMqt53PP2lkEZTv6_-17" edge="1">
          <mxGeometry relative="1" as="geometry">
            <mxPoint x="-694" y="937.12" as="targetPoint" />
            <mxPoint x="-501.5" y="827.1199999999999" as="sourcePoint" />
          </mxGeometry>
        </mxCell>
        <mxCell id="Fa5fMqt53PP2lkEZTv6_-10" value="НЕТ" style="text;html=1;align=center;verticalAlign=middle;resizable=0;points=[];autosize=1;strokeColor=none;fillColor=none;" parent="1" vertex="1">
          <mxGeometry x="-80" y="677.12" width="50" height="30" as="geometry" />
        </mxCell>
        <mxCell id="Fa5fMqt53PP2lkEZTv6_-15" value="ДА" style="text;html=1;align=center;verticalAlign=middle;resizable=0;points=[];autosize=1;strokeColor=none;fillColor=none;" parent="1" vertex="1">
          <mxGeometry x="-413" y="665" width="40" height="30" as="geometry" />
        </mxCell>
        <mxCell id="Fa5fMqt53PP2lkEZTv6_-17" value="&lt;div&gt;&lt;br&gt;&lt;/div&gt;&lt;div&gt;&lt;p dir=&quot;ltr&quot;&gt;R8: Choose funds you can sell quickly - Выбирайте фонды, которые можно быстро продать&lt;/p&gt;&lt;p dir=&quot;ltr&quot;&gt;&lt;strong style=&quot;background-color: transparent; color: light-dark(rgb(0, 0, 0), rgb(255, 255, 255));&quot;&gt;Примеры&lt;/strong&gt;&lt;span style=&quot;background-color: transparent; color: light-dark(rgb(0, 0, 0), rgb(255, 255, 255));&quot;&gt;: Паевой фонд &quot;Сбербанк – Фонд ликвидных активов&quot;, Тинькофф &quot;Фонд краткосрочных вложений&quot;.&lt;/span&gt;&lt;/p&gt;&lt;/div&gt;" style="rounded=1;whiteSpace=wrap;html=1;" parent="1" vertex="1">
          <mxGeometry x="-515" y="741.44" width="265" height="118.56" as="geometry" />
        </mxCell>
        <mxCell id="2kH5Foxya9Uprb5NJpMq-19" value="&lt;div&gt;&lt;span style=&quot;background-color: transparent; color: light-dark(rgb(0, 0, 0), rgb(255, 255, 255));&quot;&gt;R3: Choose simple funds that pay regularly - Выбирайте простые фонды, которые регулярно платят&lt;/span&gt;&lt;/div&gt;&lt;div&gt;&lt;p dir=&quot;ltr&quot;&gt;&lt;strong style=&quot;background-color: transparent; color: light-dark(rgb(0, 0, 0), rgb(255, 255, 255));&quot;&gt;Примеры&lt;/strong&gt;&lt;span style=&quot;background-color: transparent; color: light-dark(rgb(0, 0, 0), rgb(255, 255, 255));&quot;&gt;: Паевой фонд &quot;Сбербанк – Фонд облигаций&quot;&lt;/span&gt;&lt;/p&gt;&lt;/div&gt;" style="rounded=1;whiteSpace=wrap;html=1;" parent="1" vertex="1">
          <mxGeometry x="680" y="415" width="230" height="110" as="geometry" />
        </mxCell>
        <mxCell id="2kH5Foxya9Uprb5NJpMq-54" style="edgeStyle=orthogonalEdgeStyle;rounded=0;orthogonalLoop=1;jettySize=auto;html=1;exitX=0.75;exitY=1;exitDx=0;exitDy=0;entryX=0.5;entryY=0;entryDx=0;entryDy=0;fontSize=12;startSize=8;endSize=8;" parent="1" source="2kH5Foxya9Uprb5NJpMq-49" target="2kH5Foxya9Uprb5NJpMq-55" edge="1">
          <mxGeometry relative="1" as="geometry">
            <mxPoint x="1575" y="420" as="targetPoint" />
          </mxGeometry>
        </mxCell>
        <mxCell id="WttKWr17SdZgSrrhv0VV-4" style="edgeStyle=orthogonalEdgeStyle;rounded=0;orthogonalLoop=1;jettySize=auto;html=1;exitX=0.25;exitY=1;exitDx=0;exitDy=0;entryX=0.5;entryY=0;entryDx=0;entryDy=0;fontSize=12;startSize=8;endSize=8;" edge="1" parent="1" source="2kH5Foxya9Uprb5NJpMq-49" target="WttKWr17SdZgSrrhv0VV-3">
          <mxGeometry relative="1" as="geometry" />
        </mxCell>
        <mxCell id="2kH5Foxya9Uprb5NJpMq-49" value="&lt;div style=&quot;line-height: 100%;&quot;&gt;&lt;p data-pm-slice=&quot;1 1 []&quot; dir=&quot;ltr&quot;&gt;q6: Are you focused on long-term growth (&amp;gt;10 years)? - Ориентированы ли вы на долгосрочный рост (&amp;gt;10 лет)?&lt;/p&gt;&lt;/div&gt;" style="rounded=0;whiteSpace=wrap;html=1;align=center;" parent="1" vertex="1">
          <mxGeometry x="1160" y="295" width="270" height="70" as="geometry" />
        </mxCell>
        <mxCell id="2kH5Foxya9Uprb5NJpMq-55" value="&lt;div&gt;&lt;span style=&quot;background-color: transparent; color: light-dark(rgb(0, 0, 0), rgb(255, 255, 255));&quot;&gt;R10: Invest in short-term options for quick returns - Вкладывайте в краткосрочные инструменты для быстрого возврата&lt;/span&gt;&lt;/div&gt;&lt;div&gt;&lt;p dir=&quot;ltr&quot;&gt;&lt;strong style=&quot;background-color: transparent; color: light-dark(rgb(0, 0, 0), rgb(255, 255, 255));&quot;&gt;Примеры&lt;/strong&gt;&lt;span style=&quot;background-color: transparent; color: light-dark(rgb(0, 0, 0), rgb(255, 255, 255));&quot;&gt;: Паевой фонд &quot;Тинькофф – Фонд краткосрочных облигаций&quot;, облигации со сроком до года от Сбербанка.&lt;/span&gt;&lt;/p&gt;&lt;/div&gt;" style="rounded=1;whiteSpace=wrap;html=1;" parent="1" vertex="1">
          <mxGeometry x="1430" y="434.43" width="260" height="115.57" as="geometry" />
        </mxCell>
        <mxCell id="2kH5Foxya9Uprb5NJpMq-60" style="edgeStyle=orthogonalEdgeStyle;rounded=0;orthogonalLoop=1;jettySize=auto;html=1;exitX=0.25;exitY=1;exitDx=0;exitDy=0;entryX=0.5;entryY=0;entryDx=0;entryDy=0;fontSize=12;startSize=8;endSize=8;" parent="1" source="2kH5Foxya9Uprb5NJpMq-57" target="2kH5Foxya9Uprb5NJpMq-89" edge="1">
          <mxGeometry relative="1" as="geometry">
            <mxPoint x="1276" y="660" as="targetPoint" />
          </mxGeometry>
        </mxCell>
        <mxCell id="2kH5Foxya9Uprb5NJpMq-94" style="edgeStyle=orthogonalEdgeStyle;rounded=0;orthogonalLoop=1;jettySize=auto;html=1;exitX=0.75;exitY=1;exitDx=0;exitDy=0;entryX=0.5;entryY=0;entryDx=0;entryDy=0;fontSize=12;startSize=8;endSize=8;" parent="1" source="2kH5Foxya9Uprb5NJpMq-57" target="2kH5Foxya9Uprb5NJpMq-90" edge="1">
          <mxGeometry relative="1" as="geometry" />
        </mxCell>
        <mxCell id="2kH5Foxya9Uprb5NJpMq-57" value="&lt;div style=&quot;line-height: 100%;&quot;&gt;&lt;p data-pm-slice=&quot;1 1 []&quot; dir=&quot;ltr&quot;&gt;q12: Do you have an expert to guide your investments? - Есть ли у вас эксперт, который помогает с вложениями?&lt;/p&gt;&lt;/div&gt;" style="rounded=0;whiteSpace=wrap;html=1;align=center;" parent="1" vertex="1">
          <mxGeometry x="890" y="555" width="220" height="60" as="geometry" />
        </mxCell>
        <mxCell id="2kH5Foxya9Uprb5NJpMq-87" value="ДА" style="text;html=1;align=center;verticalAlign=middle;resizable=0;points=[];autosize=1;strokeColor=none;fillColor=none;" parent="1" vertex="1">
          <mxGeometry x="3240" y="1217.5" width="40" height="30" as="geometry" />
        </mxCell>
        <mxCell id="2kH5Foxya9Uprb5NJpMq-89" value="&lt;li data-pm-slice=&quot;2 4 [&amp;quot;bulletList&amp;quot;,{&amp;quot;tight&amp;quot;:false,&amp;quot;dir&amp;quot;:&amp;quot;ltr&amp;quot;}]&quot;&gt;&lt;p dir=&quot;ltr&quot;&gt;R11: Try riskier stocks with expert guidance - Пробуйте более рискованные акции с помощью эксперта&lt;/p&gt;&lt;ul dir=&quot;ltr&quot; data-tight=&quot;true&quot; class=&quot;tight&quot;&gt;&lt;li&gt;&lt;p dir=&quot;ltr&quot;&gt;&lt;strong&gt;Примеры&lt;/strong&gt;: Акции компаний, таких как Kaspi.kz, или финтех-стартапы, такие как Тинькофф.&lt;/p&gt;&lt;/li&gt;&lt;/ul&gt;&lt;/li&gt;" style="rounded=1;whiteSpace=wrap;html=1;" parent="1" vertex="1">
          <mxGeometry x="696" y="695" width="260" height="107.88" as="geometry" />
        </mxCell>
        <mxCell id="2kH5Foxya9Uprb5NJpMq-90" value="&lt;p dir=&quot;ltr&quot;&gt;R12: Invest in risky stocks carefully if you have no expert - Вкладывайте в рискованные акции с осторожностью, если нет эксперта&lt;/p&gt;&lt;p dir=&quot;ltr&quot;&gt;&lt;strong style=&quot;background-color: transparent; color: light-dark(rgb(0, 0, 0), rgb(255, 255, 255));&quot;&gt;Примеры&lt;/strong&gt;&lt;span style=&quot;background-color: transparent; color: light-dark(rgb(0, 0, 0), rgb(255, 255, 255));&quot;&gt;: Акции компаний, таких как Яндекс, или стартапы, такие как Ozon.&lt;/span&gt;&lt;/p&gt;" style="rounded=1;whiteSpace=wrap;html=1;" parent="1" vertex="1">
          <mxGeometry x="1005.5" y="688.9399999999999" width="239" height="120" as="geometry" />
        </mxCell>
        <mxCell id="2kH5Foxya9Uprb5NJpMq-96" value="НЕТ" style="text;html=1;align=center;verticalAlign=middle;resizable=0;points=[];autosize=1;strokeColor=none;fillColor=none;" parent="1" vertex="1">
          <mxGeometry x="1380" y="370" width="50" height="30" as="geometry" />
        </mxCell>
        <mxCell id="2kH5Foxya9Uprb5NJpMq-105" value="ДА" style="text;html=1;align=center;verticalAlign=middle;resizable=0;points=[];autosize=1;strokeColor=none;fillColor=none;" parent="1" vertex="1">
          <mxGeometry x="575" y="755.38" width="40" height="30" as="geometry" />
        </mxCell>
        <mxCell id="2kH5Foxya9Uprb5NJpMq-115" value="ДА" style="text;html=1;align=center;verticalAlign=middle;resizable=0;points=[];autosize=1;strokeColor=none;fillColor=none;" parent="1" vertex="1">
          <mxGeometry x="1120" y="370" width="40" height="30" as="geometry" />
        </mxCell>
        <mxCell id="-H6ShEVidf8R9MP8SXq7-4" value="НЕТ" style="text;html=1;align=center;verticalAlign=middle;resizable=0;points=[];autosize=1;strokeColor=none;fillColor=none;" parent="1" vertex="1">
          <mxGeometry x="1251" y="240" width="50" height="30" as="geometry" />
        </mxCell>
        <mxCell id="-H6ShEVidf8R9MP8SXq7-6" value="ДА" style="text;html=1;align=center;verticalAlign=middle;resizable=0;points=[];autosize=1;strokeColor=none;fillColor=none;" parent="1" vertex="1">
          <mxGeometry x="1000" y="484.62" width="40" height="30" as="geometry" />
        </mxCell>
        <mxCell id="WttKWr17SdZgSrrhv0VV-2" value="R6: Start with easy funds that don’t need tax knowledge - Начинайте с простых фондов, не требующих знаний о налогах&lt;div&gt;&lt;strong style=&quot;color: light-dark(rgb(0, 0, 0), rgb(255, 255, 255)); background-color: transparent;&quot;&gt;&lt;br&gt;&lt;/strong&gt;&lt;/div&gt;&lt;div&gt;&lt;strong style=&quot;color: light-dark(rgb(0, 0, 0), rgb(255, 255, 255)); background-color: transparent;&quot;&gt;Примеры&lt;/strong&gt;&lt;span style=&quot;color: light-dark(rgb(0, 0, 0), rgb(255, 255, 255)); background-color: transparent;&quot;&gt;: Паевой фонд &quot;ВТБ – Фонд сбалансированный&quot;, &quot;Альфа-Капитал – Фонд доходный&quot;.&lt;/span&gt;&lt;/div&gt;" style="rounded=1;whiteSpace=wrap;html=1;" vertex="1" parent="1">
          <mxGeometry x="374" y="572.12" width="290" height="110" as="geometry" />
        </mxCell>
        <mxCell id="WttKWr17SdZgSrrhv0VV-5" style="edgeStyle=orthogonalEdgeStyle;rounded=0;orthogonalLoop=1;jettySize=auto;html=1;exitX=0.25;exitY=1;exitDx=0;exitDy=0;entryX=0.5;entryY=0;entryDx=0;entryDy=0;fontSize=12;startSize=8;endSize=8;" edge="1" parent="1" source="WttKWr17SdZgSrrhv0VV-3" target="2kH5Foxya9Uprb5NJpMq-57">
          <mxGeometry relative="1" as="geometry" />
        </mxCell>
        <mxCell id="WttKWr17SdZgSrrhv0VV-8" style="edgeStyle=orthogonalEdgeStyle;rounded=0;orthogonalLoop=1;jettySize=auto;html=1;exitX=0.75;exitY=1;exitDx=0;exitDy=0;entryX=0.5;entryY=0;entryDx=0;entryDy=0;fontSize=12;startSize=8;endSize=8;" edge="1" parent="1" source="WttKWr17SdZgSrrhv0VV-3" target="WttKWr17SdZgSrrhv0VV-7">
          <mxGeometry relative="1" as="geometry" />
        </mxCell>
        <mxCell id="WttKWr17SdZgSrrhv0VV-3" value="&lt;div style=&quot;line-height: 100%;&quot;&gt;&lt;p data-pm-slice=&quot;1 1 []&quot; dir=&quot;ltr&quot;&gt;q9: Are you ready to take bigger risks for more growth? - Готовы ли вы к большим рискам ради большего роста?&lt;/p&gt;&lt;/div&gt;" style="rounded=0;whiteSpace=wrap;html=1;align=center;" vertex="1" parent="1">
          <mxGeometry x="1020" y="420" width="210" height="59.62" as="geometry" />
        </mxCell>
        <mxCell id="WttKWr17SdZgSrrhv0VV-6" value="ДА" style="text;html=1;align=center;verticalAlign=middle;resizable=0;points=[];autosize=1;strokeColor=none;fillColor=none;" vertex="1" parent="1">
          <mxGeometry x="835" y="612.12" width="40" height="30" as="geometry" />
        </mxCell>
        <mxCell id="WttKWr17SdZgSrrhv0VV-7" value="&lt;div&gt;&lt;span style=&quot;background-color: transparent; color: light-dark(rgb(0, 0, 0), rgb(255, 255, 255));&quot;&gt;R7: Mix safe and riskier investments for long-term growth - Сочетайте надежные и более рискованные вложения для роста&lt;/span&gt;&lt;/div&gt;&lt;div&gt;&lt;p dir=&quot;ltr&quot;&gt;&lt;strong style=&quot;background-color: transparent; color: light-dark(rgb(0, 0, 0), rgb(255, 255, 255));&quot;&gt;Примеры&lt;/strong&gt;&lt;span style=&quot;background-color: transparent; color: light-dark(rgb(0, 0, 0), rgb(255, 255, 255));&quot;&gt;: 50% в облигации ВТБ, 50% в акции Лукойла.&lt;/span&gt;&lt;/p&gt;&lt;/div&gt;" style="rounded=1;whiteSpace=wrap;html=1;" vertex="1" parent="1">
          <mxGeometry x="1160" y="529" width="230" height="110" as="geometry" />
        </mxCell>
        <mxCell id="WttKWr17SdZgSrrhv0VV-10" value="НЕТ" style="text;html=1;align=center;verticalAlign=middle;resizable=0;points=[];autosize=1;strokeColor=none;fillColor=none;" vertex="1" parent="1">
          <mxGeometry x="1070" y="627.12" width="50" height="30" as="geometry" />
        </mxCell>
        <mxCell id="WttKWr17SdZgSrrhv0VV-11" value="НЕТ" style="text;html=1;align=center;verticalAlign=middle;resizable=0;points=[];autosize=1;strokeColor=none;fillColor=none;" vertex="1" parent="1">
          <mxGeometry x="1216" y="479.62" width="50" height="30" as="geometry" />
        </mxCell>
      </root>
    </mxGraphModel>
  </diagram>
</mxfile>
